<svg width="223" height="236" viewBox="0 0 223 236" fill="none" xmlns="http://www.w3.org/2000/svg">
<rect width="223" height="236" fill="#C4C4C4"/>
<rect width="223" height="236" fill="#141414"/>
<path d="M8.06981 195.508L54.2432 101.487L100.417 195.508H8.06981Z" stroke="#00FF79" stroke-opacity="0.5"/>
<path d="M122.583 195.508L168.757 101.487L214.93 195.508H122.583Z" stroke="#00FF79" stroke-opacity="0.5"/>
<path d="M68.8634 195.509L110.998 131.391L153.132 195.509H68.8634Z" stroke="#00FF79" stroke-opacity="0.5"/>
<path d="M30.6005 195.257L112.002 31.1802L193.404 195.257H30.6005Z" stroke="#00FF79" stroke-opacity="0.5"/>
<path d="M119.468 16.5552C119.223 15.8512 118.453 15.4797 117.749 15.7252L106.276 19.7268C105.571 19.9723 105.2 20.742 105.445 21.446C105.691 22.1499 106.461 22.5215 107.165 22.2759L117.363 18.719L120.919 28.9156C121.165 29.6195 121.935 29.9911 122.639 29.7455C123.343 29.5 123.715 28.7303 123.469 28.0263L119.468 16.5552ZM67.5131 125.042L119.409 17.5867L116.978 16.4129L65.0816 123.868L67.5131 125.042Z" fill="#00FF79"/>
<line y1="-1.35" x2="48.5114" y2="-1.35" transform="matrix(0.445414 0.895325 -0.895413 0.445237 64.7798 124.205)" stroke="#00FF79" stroke-width="2.7"/>
<line y1="-1.35" x2="36.2117" y2="-1.35" transform="matrix(-0.554796 0.831987 -0.832114 -0.554605 86.3872 164.625)" stroke="#00FF79" stroke-width="2.7"/>
</svg>
