<svg width="272" height="230" viewBox="0 0 272 230" fill="none" xmlns="http://www.w3.org/2000/svg">
<path d="M60.4915 80.5029L75.5278 103.504L29.7651 174.506H1L60.4915 80.5029Z" stroke="#00FF79"/>
<path d="M29.7625 174.264L136.33 9.97421L242.897 174.264H29.7625Z" stroke="#00FF79" stroke-opacity="0.5"/>
<path d="M123.906 103.504L136.327 10.5002L30.4189 174.006H125.867L151.363 145.005L123.906 103.504Z" fill="#00FF79" stroke="#00FF79"/>
<path d="M210.201 81.0029L196.472 102.504L242.889 174.506H271L210.201 81.0029Z" stroke="#006932"/>
<path d="M136 1V11H136.654V1.7143C136.604 1.31432 136.45 1.16409 136 1Z" fill="#00FF79" stroke="#00FF79" stroke-width="0.05"/>
<path d="M142.538 1.5C141.949 1.88825 141.042 1.61699 140.577 1.5V4.50011C141.622 3.94451 142.084 3.59466 143.192 3.50008C142.98 2.84542 143.086 2.5021 142.538 1.5Z" fill="#298C58" stroke="#298C58" stroke-width="0.05"/>
<path d="M140.576 1.27158C140.576 1.04313 136 1 136 1V4.25122C138.264 4.07456 138.782 4.39464 140.576 4.50013C142.37 4.60563 140.576 1.50002 140.576 1.27158Z" fill="#00FF79" stroke="#00FF79" stroke-width="0.05"/>
<path d="M128.578 5.22783C127.494 6.1461 126.714 5.44866 126.437 4.97291L126.284 9.72546C126.873 10.4036 128.05 10.155 128.406 9.91422L128.578 5.22783Z" stroke="#00FF79" stroke-width="0.2"/>
<path d="M130.807 5.30811C130.807 5.30811 131.097 6.88345 131.242 7.3629C131.387 7.84235 132.364 8.99988 132.364 8.99988L133.456 8.66427C133.456 8.66427 132.621 7.56838 132.512 7.3629C132.403 7.15742 132.331 6.13002 132.331 6.13002L130.807 5.30811Z" stroke="#00FF79" stroke-width="0.2"/>
<path d="M131.061 4.04122C130.943 3.94328 130.335 4.28759 129.909 3.75016C129.483 3.21272 128.928 8.16262 129.091 9.00016C129.254 9.83769 129.073 10.546 129.909 11.2502C130.746 11.9543 132.493 9.81756 133.182 10.5002C133.871 11.1828 134 13.5002 134 13.5002L134.818 12.0002C134.818 12.0002 134.819 9.75014 134 9.00016C133.182 8.25017 131.308 10.0013 130.727 9.75016C130.147 9.49902 130.262 5.491 131.061 4.04122Z" stroke="#00FF79" stroke-width="0.2"/>
<path d="M129.909 11.7777C130.215 12.2687 131.471 11.1789 131.545 11.2499C131.545 11.8321 132.242 12.9524 132.384 13.4498C132.526 13.9472 133.446 15.6317 133.202 15.6998L132.364 16.5L131.546 14.2499C131.546 14.2499 129.604 11.2866 129.909 11.7777Z" stroke="#00FF79" stroke-width="0.2"/>
<path d="M132.811 1.71233C132.811 2.59741 132.049 3.32466 131.097 3.32466C130.144 3.32466 129.382 2.59741 129.382 1.71233C129.382 0.827246 130.144 0.1 131.097 0.1C132.049 0.1 132.811 0.827246 132.811 1.71233Z" stroke="#00FF79" stroke-width="0.2"/>
<path d="M128.714 4.0274C128.714 4.5342 128.277 4.9548 127.725 4.9548C127.173 4.9548 126.736 4.5342 126.736 4.0274C126.736 3.52059 127.173 3.1 127.725 3.1C128.277 3.1 128.714 3.52059 128.714 4.0274Z" stroke="#00FF79" stroke-width="0.2"/>
<path d="M128.351 4.02746C128.351 4.34513 128.076 4.61239 127.725 4.61239C127.374 4.61239 127.099 4.34513 127.099 4.02746C127.099 3.70979 127.374 3.44253 127.725 3.44253C128.076 3.44253 128.351 3.70979 128.351 4.02746Z" stroke="#00FF79" stroke-width="0.2"/>
<path d="M130.771 5.20538L131.242 4.17798C131.242 4.17798 133.093 5.20538 133.601 5.20538C134.109 5.20538 135.67 4.9314 135.67 4.9314L135.887 6.02729C135.887 6.02729 133.928 6.33551 133.42 6.40401C132.912 6.4725 130.771 5.20538 130.771 5.20538Z" stroke="#00FF79" stroke-width="0.2"/>
</svg>
