<svg width="223" height="236" viewBox="0 0 223 236" fill="none" xmlns="http://www.w3.org/2000/svg">
<rect width="223" height="236" fill="#141414"/>
<path d="M8.06981 195.508L54.2432 101.487L100.417 195.508H8.06981Z" stroke="#00FF79" stroke-opacity="0.5"/>
<path d="M122.583 195.508L168.757 101.487L214.93 195.508H122.583Z" stroke="#00FF79" stroke-opacity="0.5"/>
<path d="M68.8634 195.508L110.998 131.391L153.132 195.508H68.8634Z" stroke="#00FF79" stroke-opacity="0.5"/>
<path d="M30.6005 195.257L112.002 31.1803L193.404 195.257H30.6005Z" stroke="#00FF79" stroke-opacity="0.5"/>
<path d="M119.468 16.5554C119.223 15.8514 118.453 15.4798 117.749 15.7254L106.276 19.7269C105.571 19.9725 105.2 20.7422 105.445 21.4461C105.691 22.1501 106.461 22.5216 107.165 22.2761L117.363 18.7192L120.919 28.9158C121.165 29.6197 121.935 29.9913 122.639 29.7457C123.343 29.5002 123.715 28.7305 123.469 28.0265L119.468 16.5554ZM67.5131 125.042L119.409 17.5868L116.978 16.4131L65.0816 123.868L67.5131 125.042Z" fill="#00FF79"/>
<line y1="-1.35" x2="48.5114" y2="-1.35" transform="matrix(0.445414 0.895325 -0.895413 0.445237 64.7798 124.205)" stroke="#00FF79" stroke-width="2.7"/>
<line y1="-1.35" x2="36.2117" y2="-1.35" transform="matrix(-0.554796 0.831987 -0.832114 -0.554605 86.3872 164.625)" stroke="#00FF79" stroke-width="2.7"/>
<path d="M0 206H223V236H0V206Z" fill="#00FF79"/>
<path d="M52.4014 216.2C53.2881 216.2 54.0581 216.349 54.7114 216.648C55.3647 216.937 55.8687 217.357 56.2234 217.908C56.5781 218.449 56.7554 219.089 56.7554 219.826C56.7554 220.563 56.5781 221.203 56.2234 221.744C55.8687 222.285 55.3647 222.705 54.7114 223.004C54.0581 223.293 53.2881 223.438 52.4014 223.438H50.6934V226H47.9214V216.2H52.4014ZM52.2334 221.254C52.8027 221.254 53.2321 221.133 53.5214 220.89C53.8107 220.638 53.9554 220.283 53.9554 219.826C53.9554 219.369 53.8107 219.014 53.5214 218.762C53.2321 218.51 52.8027 218.384 52.2334 218.384H50.6934V221.254H52.2334ZM61.1466 218.286C62.4066 218.286 63.3679 218.575 64.0306 219.154C64.6933 219.723 65.0246 220.601 65.0246 221.786V226H62.5466V225.02C62.1639 225.757 61.4173 226.126 60.3066 226.126C59.7186 226.126 59.2099 226.023 58.7806 225.818C58.3513 225.613 58.0246 225.337 57.8006 224.992C57.5859 224.637 57.4786 224.236 57.4786 223.788C57.4786 223.069 57.7539 222.514 58.3046 222.122C58.8553 221.721 59.7046 221.52 60.8526 221.52H62.3646C62.3179 220.717 61.7813 220.316 60.7546 220.316C60.3906 220.316 60.0219 220.377 59.6486 220.498C59.2753 220.61 58.9579 220.769 58.6966 220.974L57.8006 219.168C58.2206 218.888 58.7293 218.673 59.3266 218.524C59.9333 218.365 60.5399 218.286 61.1466 218.286ZM61.0486 224.446C61.3566 224.446 61.6273 224.371 61.8606 224.222C62.0939 224.073 62.2619 223.853 62.3646 223.564V222.906H61.2166C60.4419 222.906 60.0546 223.163 60.0546 223.676C60.0546 223.909 60.1433 224.096 60.3206 224.236C60.4979 224.376 60.7406 224.446 61.0486 224.446ZM69.4616 226.126C68.8269 226.126 68.2016 226.056 67.5856 225.916C66.9696 225.767 66.4749 225.575 66.1016 225.342L66.8996 223.522C67.2449 223.737 67.6556 223.909 68.1316 224.04C68.6076 224.161 69.0789 224.222 69.5456 224.222C69.9749 224.222 70.2783 224.18 70.4556 224.096C70.6423 224.003 70.7356 223.872 70.7356 223.704C70.7356 223.536 70.6236 223.419 70.3996 223.354C70.1849 223.279 69.8396 223.209 69.3636 223.144C68.7569 223.069 68.2389 222.971 67.8096 222.85C67.3896 222.729 67.0256 222.505 66.7176 222.178C66.4096 221.851 66.2556 221.394 66.2556 220.806C66.2556 220.321 66.4003 219.891 66.6896 219.518C66.9789 219.135 67.3989 218.837 67.9496 218.622C68.5096 218.398 69.1769 218.286 69.9516 218.286C70.5023 218.286 71.0483 218.342 71.5896 218.454C72.1309 218.566 72.5836 218.725 72.9476 218.93L72.1496 220.736C71.4776 220.363 70.7496 220.176 69.9656 220.176C69.5456 220.176 69.2376 220.227 69.0416 220.33C68.8456 220.423 68.7476 220.549 68.7476 220.708C68.7476 220.885 68.8549 221.011 69.0696 221.086C69.2843 221.151 69.6389 221.221 70.1336 221.296C70.7589 221.389 71.2769 221.497 71.6876 221.618C72.0983 221.739 72.4529 221.963 72.7516 222.29C73.0596 222.607 73.2136 223.055 73.2136 223.634C73.2136 224.11 73.0689 224.539 72.7796 224.922C72.4903 225.295 72.0609 225.589 71.4916 225.804C70.9316 226.019 70.2549 226.126 69.4616 226.126ZM77.1179 226.126C76.4832 226.126 75.8579 226.056 75.2419 225.916C74.6259 225.767 74.1312 225.575 73.7579 225.342L74.5559 223.522C74.9012 223.737 75.3119 223.909 75.7879 224.04C76.2639 224.161 76.7352 224.222 77.2019 224.222C77.6312 224.222 77.9345 224.18 78.1119 224.096C78.2985 224.003 78.3919 223.872 78.3919 223.704C78.3919 223.536 78.2799 223.419 78.0559 223.354C77.8412 223.279 77.4959 223.209 77.0199 223.144C76.4132 223.069 75.8952 222.971 75.4659 222.85C75.0459 222.729 74.6819 222.505 74.3739 222.178C74.0659 221.851 73.9119 221.394 73.9119 220.806C73.9119 220.321 74.0565 219.891 74.3459 219.518C74.6352 219.135 75.0552 218.837 75.6059 218.622C76.1659 218.398 76.8332 218.286 77.6079 218.286C78.1585 218.286 78.7045 218.342 79.2459 218.454C79.7872 218.566 80.2399 218.725 80.6039 218.93L79.8059 220.736C79.1339 220.363 78.4059 220.176 77.6219 220.176C77.2019 220.176 76.8939 220.227 76.6979 220.33C76.5019 220.423 76.4039 220.549 76.4039 220.708C76.4039 220.885 76.5112 221.011 76.7259 221.086C76.9405 221.151 77.2952 221.221 77.7899 221.296C78.4152 221.389 78.9332 221.497 79.3439 221.618C79.7545 221.739 80.1092 221.963 80.4079 222.29C80.7159 222.607 80.8699 223.055 80.8699 223.634C80.8699 224.11 80.7252 224.539 80.4359 224.922C80.1465 225.295 79.7172 225.589 79.1479 225.804C78.5879 226.019 77.9112 226.126 77.1179 226.126ZM89.7721 222.22C89.7721 222.239 89.7581 222.458 89.7301 222.878H84.2141C84.3261 223.27 84.5408 223.573 84.8581 223.788C85.1848 223.993 85.5908 224.096 86.0761 224.096C86.4401 224.096 86.7528 224.045 87.0141 223.942C87.2848 223.839 87.5554 223.671 87.8261 223.438L89.2261 224.894C88.4888 225.715 87.4108 226.126 85.9921 226.126C85.1054 226.126 84.3261 225.958 83.6541 225.622C82.9821 225.286 82.4594 224.819 82.0861 224.222C81.7221 223.625 81.5401 222.948 81.5401 222.192C81.5401 221.445 81.7174 220.778 82.0721 220.19C82.4361 219.593 82.9354 219.126 83.5701 218.79C84.2048 218.454 84.9188 218.286 85.7121 218.286C86.4681 218.286 87.1541 218.445 87.7701 218.762C88.3861 219.07 88.8714 219.523 89.2261 220.12C89.5901 220.708 89.7721 221.408 89.7721 222.22ZM85.7261 220.176C85.3154 220.176 84.9701 220.293 84.6901 220.526C84.4194 220.759 84.2468 221.077 84.1721 221.478H87.2801C87.2054 221.077 87.0281 220.759 86.7481 220.526C86.4774 220.293 86.1368 220.176 85.7261 220.176ZM103.137 215.612V226H100.603V225.244C100.108 225.832 99.3661 226.126 98.3768 226.126C97.6861 226.126 97.0561 225.967 96.4868 225.65C95.9174 225.323 95.4648 224.861 95.1288 224.264C94.8021 223.667 94.6388 222.976 94.6388 222.192C94.6388 221.408 94.8021 220.722 95.1288 220.134C95.4648 219.537 95.9174 219.079 96.4868 218.762C97.0561 218.445 97.6861 218.286 98.3768 218.286C99.2821 218.286 99.9821 218.547 100.477 219.07V215.612H103.137ZM98.9368 224.012C99.3941 224.012 99.7721 223.853 100.071 223.536C100.369 223.209 100.519 222.761 100.519 222.192C100.519 221.632 100.369 221.193 100.071 220.876C99.7814 220.559 99.4034 220.4 98.9368 220.4C98.4701 220.4 98.0874 220.559 97.7888 220.876C97.4901 221.193 97.3408 221.632 97.3408 222.192C97.3408 222.761 97.4901 223.209 97.7888 223.536C98.0874 223.853 98.4701 224.012 98.9368 224.012ZM112.604 222.22C112.604 222.239 112.59 222.458 112.562 222.878H107.046C107.158 223.27 107.373 223.573 107.69 223.788C108.017 223.993 108.423 224.096 108.908 224.096C109.272 224.096 109.585 224.045 109.846 223.942C110.117 223.839 110.387 223.671 110.658 223.438L112.058 224.894C111.321 225.715 110.243 226.126 108.824 226.126C107.937 226.126 107.158 225.958 106.486 225.622C105.814 225.286 105.291 224.819 104.918 224.222C104.554 223.625 104.372 222.948 104.372 222.192C104.372 221.445 104.549 220.778 104.904 220.19C105.268 219.593 105.767 219.126 106.402 218.79C107.037 218.454 107.751 218.286 108.544 218.286C109.3 218.286 109.986 218.445 110.602 218.762C111.218 219.07 111.703 219.523 112.058 220.12C112.422 220.708 112.604 221.408 112.604 222.22ZM108.558 220.176C108.147 220.176 107.802 220.293 107.522 220.526C107.251 220.759 107.079 221.077 107.004 221.478H110.112C110.037 221.077 109.86 220.759 109.58 220.526C109.309 220.293 108.969 220.176 108.558 220.176ZM125.899 223.858V226H118.031V216.2H125.717V218.342H120.775V219.994H125.129V222.066H120.775V223.858H125.899ZM132.253 218.286C133.196 218.286 133.952 218.566 134.521 219.126C135.1 219.686 135.389 220.531 135.389 221.66V226H132.729V222.094C132.729 221.058 132.314 220.54 131.483 220.54C131.026 220.54 130.657 220.689 130.377 220.988C130.106 221.287 129.971 221.735 129.971 222.332V226H127.311V218.412H129.845V219.238C130.144 218.93 130.498 218.697 130.909 218.538C131.32 218.37 131.768 218.286 132.253 218.286ZM142.295 225.692C142.071 225.832 141.796 225.939 141.469 226.014C141.152 226.089 140.811 226.126 140.447 226.126C139.458 226.126 138.697 225.883 138.165 225.398C137.633 224.913 137.367 224.189 137.367 223.228V220.68H136.261V218.692H137.367V216.718H140.027V218.692H141.763V220.68H140.027V223.2C140.027 223.471 140.097 223.685 140.237 223.844C140.386 223.993 140.582 224.068 140.825 224.068C141.133 224.068 141.404 223.989 141.637 223.83L142.295 225.692ZM145.855 219.322C146.125 218.977 146.475 218.72 146.905 218.552C147.343 218.375 147.843 218.286 148.403 218.286V220.68C148.16 220.652 147.959 220.638 147.801 220.638C147.231 220.638 146.783 220.792 146.457 221.1C146.139 221.408 145.981 221.879 145.981 222.514V226H143.321V218.412H145.855V219.322ZM152.68 218.286C153.94 218.286 154.901 218.575 155.564 219.154C156.226 219.723 156.558 220.601 156.558 221.786V226H154.08V225.02C153.697 225.757 152.95 226.126 151.84 226.126C151.252 226.126 150.743 226.023 150.314 225.818C149.884 225.613 149.558 225.337 149.334 224.992C149.119 224.637 149.012 224.236 149.012 223.788C149.012 223.069 149.287 222.514 149.838 222.122C150.388 221.721 151.238 221.52 152.386 221.52H153.898C153.851 220.717 153.314 220.316 152.288 220.316C151.924 220.316 151.555 220.377 151.182 220.498C150.808 220.61 150.491 220.769 150.23 220.974L149.334 219.168C149.754 218.888 150.262 218.673 150.86 218.524C151.466 218.365 152.073 218.286 152.68 218.286ZM152.582 224.446C152.89 224.446 153.16 224.371 153.394 224.222C153.627 224.073 153.795 223.853 153.898 223.564V222.906H152.75C151.975 222.906 151.588 223.163 151.588 223.676C151.588 223.909 151.676 224.096 151.854 224.236C152.031 224.376 152.274 224.446 152.582 224.446ZM166.41 215.612V226H163.876V225.244C163.382 225.832 162.64 226.126 161.65 226.126C160.96 226.126 160.33 225.967 159.76 225.65C159.191 225.323 158.738 224.861 158.402 224.264C158.076 223.667 157.912 222.976 157.912 222.192C157.912 221.408 158.076 220.722 158.402 220.134C158.738 219.537 159.191 219.079 159.76 218.762C160.33 218.445 160.96 218.286 161.65 218.286C162.556 218.286 163.256 218.547 163.75 219.07V215.612H166.41ZM162.21 224.012C162.668 224.012 163.046 223.853 163.344 223.536C163.643 223.209 163.792 222.761 163.792 222.192C163.792 221.632 163.643 221.193 163.344 220.876C163.055 220.559 162.677 220.4 162.21 220.4C161.744 220.4 161.361 220.559 161.062 220.876C160.764 221.193 160.614 221.632 160.614 222.192C160.614 222.761 160.764 223.209 161.062 223.536C161.361 223.853 161.744 224.012 162.21 224.012ZM171.356 218.286C172.616 218.286 173.577 218.575 174.24 219.154C174.902 219.723 175.234 220.601 175.234 221.786V226H172.756V225.02C172.373 225.757 171.626 226.126 170.516 226.126C169.928 226.126 169.419 226.023 168.99 225.818C168.56 225.613 168.234 225.337 168.01 224.992C167.795 224.637 167.688 224.236 167.688 223.788C167.688 223.069 167.963 222.514 168.514 222.122C169.064 221.721 169.914 221.52 171.062 221.52H172.574C172.527 220.717 171.99 220.316 170.964 220.316C170.6 220.316 170.231 220.377 169.858 220.498C169.484 220.61 169.167 220.769 168.906 220.974L168.01 219.168C168.43 218.888 168.938 218.673 169.536 218.524C170.142 218.365 170.749 218.286 171.356 218.286ZM171.258 224.446C171.566 224.446 171.836 224.371 172.07 224.222C172.303 224.073 172.471 223.853 172.574 223.564V222.906H171.426C170.651 222.906 170.264 223.163 170.264 223.676C170.264 223.909 170.352 224.096 170.53 224.236C170.707 224.376 170.95 224.446 171.258 224.446Z" fill="black"/>
</svg>
